<?xml version="1.0" standalone="no"?>
<!DOCTYPE svg PUBLIC "-//W3C//DTD SVG 20010904//EN"
 "http://www.w3.org/TR/2001/REC-SVG-20010904/DTD/svg10.dtd">
<svg version="1.0" xmlns="http://www.w3.org/2000/svg"
 width="1024.000000pt" height="1024.000000pt" viewBox="0 0 1024.000000 1024.000000"
 preserveAspectRatio="xMidYMid meet">

<g transform="translate(0.000000,1024.000000) scale(0.100000,-0.100000)"
fill="#000000" stroke="none">
<path d="M2545 9459 c-25 -73 -1773 -6904 -1768 -6909 15 -13 6907 -1780 6913
-1773 13 15 1780 6907 1773 6913 -5 4 -1554 405 -3443 890 -1889 486 -3443
885 -3452 888 -10 2 -20 -2 -23 -9z m2748 -3660 c364 -94 665 -174 669 -178 4
-4 -70 -308 -166 -676 -156 -606 -175 -670 -192 -667 -28 6 -1327 342 -1330
345 -1 1 77 304 172 672 95 369 174 671 174 673 0 4 18 0 673 -169z"/>
</g>
</svg>
